<svg viewBox="0 0 36 36" fill="none" xmlns="http://www.w3.org/2000/svg">
  <defs>
    <linearGradient id="fg" x1="0" y1="1" x2="0" y2="0">
      <stop offset="0%" stop-color="#ea580c"/>
      <stop offset="50%" stop-color="#f97316"/>
      <stop offset="100%" stop-color="#fb923c"/>
    </linearGradient>
    <linearGradient id="ig" x1="0" y1="1" x2="0" y2="0">
      <stop offset="0%" stop-color="#f97316"/>
      <stop offset="100%" stop-color="#fbbf24"/>
    </linearGradient>
  </defs>
  <path d="M18 4C18 4 10 14 10 22C10 26.4 13.6 30 18 30C22.4 30 26 26.4 26 22C26 14 18 4 18 4Z" fill="url(#fg)"/>
  <path d="M18 12C18 12 14 18 14 23C14 25.2 15.8 27 18 27C20.2 27 22 25.2 22 23C22 18 18 12 18 12Z" fill="url(#ig)"/>
</svg>
